<mxfile host="app.diagrams.net" modified="2022-04-02T15:07:21.591Z" agent="5.0 (Windows NT 10.0; Win64; x64) AppleWebKit/537.36 (KHTML, like Gecko) Chrome/100.0.4896.60 Safari/537.36" etag="6jhmw1aCK_kczME413dO" version="17.4.0" type="github">
  <diagram id="qnFRUYKLidkErhUA6jka" name="Page-1">
    <mxGraphModel dx="1874" dy="832" grid="0" gridSize="10" guides="1" tooltips="1" connect="1" arrows="1" fold="1" page="0" pageScale="1" pageWidth="1169" pageHeight="827" background="#1B1D20" math="0" shadow="0">
      <root>
        <mxCell id="0" />
        <mxCell id="1" parent="0" />
        <mxCell id="ciX_IjcqIJmXs5fLBIkF-2" value="Vector" style="rounded=1;whiteSpace=wrap;html=1;fontFamily=Verdana;fontSize=25;fillColor=#FCE0B0;" parent="1" vertex="1">
          <mxGeometry x="80" y="160" width="160" height="80" as="geometry" />
        </mxCell>
        <mxCell id="ciX_IjcqIJmXs5fLBIkF-13" value="elem 1" style="rounded=1;whiteSpace=wrap;html=1;fontFamily=Verdana;fontSize=25;strokeColor=none;fillColor=#177BA6;" parent="1" vertex="1">
          <mxGeometry x="80" y="300" width="120" height="40" as="geometry" />
        </mxCell>
        <mxCell id="i34O2aka0GKam-lfOSil-1" value="elem 2" style="rounded=1;whiteSpace=wrap;html=1;fontFamily=Verdana;fontSize=25;strokeColor=none;fillColor=#177BA6;" parent="1" vertex="1">
          <mxGeometry x="80" y="360" width="120" height="40" as="geometry" />
        </mxCell>
        <mxCell id="i34O2aka0GKam-lfOSil-2" value="elem 3" style="rounded=1;whiteSpace=wrap;html=1;fontFamily=Verdana;fontSize=25;strokeColor=none;fillColor=#177BA6;" parent="1" vertex="1">
          <mxGeometry x="80" y="420" width="120" height="40" as="geometry" />
        </mxCell>
        <mxCell id="i34O2aka0GKam-lfOSil-3" value="List" style="rounded=1;whiteSpace=wrap;html=1;fontFamily=Verdana;fontSize=25;fillColor=#FCE0B0;" parent="1" vertex="1">
          <mxGeometry x="280" y="160" width="160" height="80" as="geometry" />
        </mxCell>
        <mxCell id="i34O2aka0GKam-lfOSil-4" value="elem 1" style="rounded=1;whiteSpace=wrap;html=1;fontFamily=Verdana;fontSize=25;strokeColor=none;fillColor=#177BA6;" parent="1" vertex="1">
          <mxGeometry x="300" y="300" width="120" height="40" as="geometry" />
        </mxCell>
        <mxCell id="i34O2aka0GKam-lfOSil-5" value="elem 2" style="rounded=1;whiteSpace=wrap;html=1;fontFamily=Verdana;fontSize=25;strokeColor=none;fillColor=#177BA6;" parent="1" vertex="1">
          <mxGeometry x="300" y="380" width="120" height="40" as="geometry" />
        </mxCell>
        <mxCell id="i34O2aka0GKam-lfOSil-6" value="elem 3" style="rounded=1;whiteSpace=wrap;html=1;fontFamily=Verdana;fontSize=25;strokeColor=none;fillColor=#177BA6;" parent="1" vertex="1">
          <mxGeometry x="300" y="460" width="120" height="40" as="geometry" />
        </mxCell>
        <mxCell id="i34O2aka0GKam-lfOSil-7" value="Forward List" style="rounded=1;whiteSpace=wrap;html=1;fontFamily=Verdana;fontSize=25;fillColor=#FCE0B0;" parent="1" vertex="1">
          <mxGeometry x="480" y="160" width="160" height="80" as="geometry" />
        </mxCell>
        <mxCell id="i34O2aka0GKam-lfOSil-8" value="elem 1" style="rounded=1;whiteSpace=wrap;html=1;fontFamily=Verdana;fontSize=25;strokeColor=none;fillColor=#177BA6;" parent="1" vertex="1">
          <mxGeometry x="480" y="300" width="120" height="40" as="geometry" />
        </mxCell>
        <mxCell id="i34O2aka0GKam-lfOSil-9" value="elem 2" style="rounded=1;whiteSpace=wrap;html=1;fontFamily=Verdana;fontSize=25;strokeColor=none;fillColor=#177BA6;" parent="1" vertex="1">
          <mxGeometry x="480" y="380" width="120" height="40" as="geometry" />
        </mxCell>
        <mxCell id="i34O2aka0GKam-lfOSil-10" value="elem 3" style="rounded=1;whiteSpace=wrap;html=1;fontFamily=Verdana;fontSize=25;strokeColor=none;fillColor=#177BA6;" parent="1" vertex="1">
          <mxGeometry x="480" y="460" width="120" height="40" as="geometry" />
        </mxCell>
        <mxCell id="i34O2aka0GKam-lfOSil-11" value="Deque" style="rounded=1;whiteSpace=wrap;html=1;fontFamily=Verdana;fontSize=25;fillColor=#FCE0B0;" parent="1" vertex="1">
          <mxGeometry x="680" y="160" width="160" height="80" as="geometry" />
        </mxCell>
        <mxCell id="i34O2aka0GKam-lfOSil-12" value="elem 1" style="rounded=1;whiteSpace=wrap;html=1;fontFamily=Verdana;fontSize=25;strokeColor=none;fillColor=#177BA6;" parent="1" vertex="1">
          <mxGeometry x="698" y="360" width="120" height="40" as="geometry" />
        </mxCell>
        <mxCell id="i34O2aka0GKam-lfOSil-13" value="elem 2" style="rounded=1;whiteSpace=wrap;html=1;fontFamily=Verdana;fontSize=25;strokeColor=none;fillColor=#177BA6;" parent="1" vertex="1">
          <mxGeometry x="698" y="414" width="120" height="40" as="geometry" />
        </mxCell>
        <mxCell id="i34O2aka0GKam-lfOSil-14" value="elem 3" style="rounded=1;whiteSpace=wrap;html=1;fontFamily=Verdana;fontSize=25;strokeColor=none;fillColor=#177BA6;" parent="1" vertex="1">
          <mxGeometry x="698" y="490" width="120" height="40" as="geometry" />
        </mxCell>
        <mxCell id="i34O2aka0GKam-lfOSil-15" value="Array" style="rounded=1;whiteSpace=wrap;html=1;fontFamily=Verdana;fontSize=25;fillColor=#FCE0B0;" parent="1" vertex="1">
          <mxGeometry x="880" y="160" width="160" height="80" as="geometry" />
        </mxCell>
        <mxCell id="i34O2aka0GKam-lfOSil-16" value="elem 1" style="rounded=1;whiteSpace=wrap;html=1;fontFamily=Verdana;fontSize=25;strokeColor=none;fillColor=#177BA6;" parent="1" vertex="1">
          <mxGeometry x="880" y="300" width="120" height="40" as="geometry" />
        </mxCell>
        <mxCell id="i34O2aka0GKam-lfOSil-17" value="elem 2" style="rounded=1;whiteSpace=wrap;html=1;fontFamily=Verdana;fontSize=25;strokeColor=none;fillColor=#177BA6;" parent="1" vertex="1">
          <mxGeometry x="880" y="360" width="120" height="40" as="geometry" />
        </mxCell>
        <mxCell id="i34O2aka0GKam-lfOSil-18" value="elem 3" style="rounded=1;whiteSpace=wrap;html=1;fontFamily=Verdana;fontSize=25;strokeColor=none;fillColor=#177BA6;" parent="1" vertex="1">
          <mxGeometry x="880" y="420" width="120" height="40" as="geometry" />
        </mxCell>
        <mxCell id="i34O2aka0GKam-lfOSil-20" value="" style="endArrow=classic;html=1;rounded=1;exitX=1;exitY=0.75;exitDx=0;exitDy=0;edgeStyle=orthogonalEdgeStyle;curved=1;strokeColor=#BD2214;strokeWidth=4;entryX=1;entryY=0.25;entryDx=0;entryDy=0;" parent="1" source="i34O2aka0GKam-lfOSil-4" target="i34O2aka0GKam-lfOSil-5" edge="1">
          <mxGeometry width="50" height="50" relative="1" as="geometry">
            <mxPoint x="430" y="400" as="sourcePoint" />
            <mxPoint x="460" y="450" as="targetPoint" />
            <Array as="points">
              <mxPoint x="460" y="330" />
              <mxPoint x="460" y="390" />
            </Array>
          </mxGeometry>
        </mxCell>
        <mxCell id="i34O2aka0GKam-lfOSil-27" value="" style="endArrow=none;dashed=1;html=1;rounded=1;strokeColor=#BD2214;strokeWidth=4;curved=1;entryX=0.5;entryY=1;entryDx=0;entryDy=0;exitX=0.5;exitY=0;exitDx=0;exitDy=0;" parent="1" source="i34O2aka0GKam-lfOSil-9" target="i34O2aka0GKam-lfOSil-8" edge="1">
          <mxGeometry width="50" height="50" relative="1" as="geometry">
            <mxPoint x="560" y="430" as="sourcePoint" />
            <mxPoint x="610" y="380" as="targetPoint" />
          </mxGeometry>
        </mxCell>
        <mxCell id="i34O2aka0GKam-lfOSil-28" value="" style="endArrow=none;dashed=1;html=1;rounded=1;strokeColor=#BD2214;strokeWidth=4;curved=1;entryX=0.5;entryY=1;entryDx=0;entryDy=0;exitX=0.5;exitY=0;exitDx=0;exitDy=0;" parent="1" source="i34O2aka0GKam-lfOSil-10" target="i34O2aka0GKam-lfOSil-9" edge="1">
          <mxGeometry width="50" height="50" relative="1" as="geometry">
            <mxPoint x="550" y="390" as="sourcePoint" />
            <mxPoint x="550" y="350" as="targetPoint" />
          </mxGeometry>
        </mxCell>
        <mxCell id="i34O2aka0GKam-lfOSil-30" value="" style="endArrow=none;dashed=1;html=1;rounded=1;strokeColor=#BD2214;strokeWidth=4;curved=1;entryX=0.5;entryY=1;entryDx=0;entryDy=0;" parent="1" source="i34O2aka0GKam-lfOSil-14" target="i34O2aka0GKam-lfOSil-13" edge="1">
          <mxGeometry width="50" height="50" relative="1" as="geometry">
            <mxPoint x="578" y="540" as="sourcePoint" />
            <mxPoint x="578" y="500" as="targetPoint" />
          </mxGeometry>
        </mxCell>
        <mxCell id="i34O2aka0GKam-lfOSil-31" value="" style="endArrow=none;dashed=1;html=1;rounded=1;strokeColor=#BD2214;strokeWidth=4;curved=1;entryX=0.5;entryY=1;entryDx=0;entryDy=0;exitX=0.5;exitY=0;exitDx=0;exitDy=0;" parent="1" source="i34O2aka0GKam-lfOSil-5" target="i34O2aka0GKam-lfOSil-4" edge="1">
          <mxGeometry width="50" height="50" relative="1" as="geometry">
            <mxPoint x="590" y="490" as="sourcePoint" />
            <mxPoint x="590" y="450" as="targetPoint" />
          </mxGeometry>
        </mxCell>
        <mxCell id="i34O2aka0GKam-lfOSil-32" value="" style="endArrow=none;dashed=1;html=1;rounded=1;strokeColor=#BD2214;strokeWidth=4;curved=1;entryX=0.5;entryY=1;entryDx=0;entryDy=0;exitX=0.5;exitY=0;exitDx=0;exitDy=0;" parent="1" source="i34O2aka0GKam-lfOSil-6" target="i34O2aka0GKam-lfOSil-5" edge="1">
          <mxGeometry width="50" height="50" relative="1" as="geometry">
            <mxPoint x="600" y="500" as="sourcePoint" />
            <mxPoint x="600" y="460" as="targetPoint" />
          </mxGeometry>
        </mxCell>
        <mxCell id="i34O2aka0GKam-lfOSil-36" value="" style="endArrow=none;dashed=1;html=1;rounded=1;strokeColor=#BD2214;strokeWidth=4;curved=1;entryX=0.5;entryY=1;entryDx=0;entryDy=0;" parent="1" target="i34O2aka0GKam-lfOSil-2" edge="1">
          <mxGeometry width="50" height="50" relative="1" as="geometry">
            <mxPoint x="140" y="570" as="sourcePoint" />
            <mxPoint x="350" y="430" as="targetPoint" />
          </mxGeometry>
        </mxCell>
        <mxCell id="i34O2aka0GKam-lfOSil-37" value="" style="endArrow=none;dashed=1;html=1;rounded=1;strokeColor=#BD2214;strokeWidth=4;curved=1;entryX=0.5;entryY=1;entryDx=0;entryDy=0;" parent="1" edge="1">
          <mxGeometry width="50" height="50" relative="1" as="geometry">
            <mxPoint x="360" y="570" as="sourcePoint" />
            <mxPoint x="359.5" y="500" as="targetPoint" />
          </mxGeometry>
        </mxCell>
        <mxCell id="i34O2aka0GKam-lfOSil-38" value="" style="endArrow=none;dashed=1;html=1;rounded=1;strokeColor=#BD2214;strokeWidth=4;curved=1;entryX=0.5;entryY=1;entryDx=0;entryDy=0;" parent="1" edge="1">
          <mxGeometry width="50" height="50" relative="1" as="geometry">
            <mxPoint x="540" y="570" as="sourcePoint" />
            <mxPoint x="539.5" y="500" as="targetPoint" />
          </mxGeometry>
        </mxCell>
        <mxCell id="i34O2aka0GKam-lfOSil-39" value="" style="endArrow=none;dashed=1;html=1;rounded=1;strokeColor=#BD2214;strokeWidth=4;curved=1;entryX=0.5;entryY=1;entryDx=0;entryDy=0;" parent="1" edge="1">
          <mxGeometry width="50" height="50" relative="1" as="geometry">
            <mxPoint x="758" y="590" as="sourcePoint" />
            <mxPoint x="757.5" y="520" as="targetPoint" />
          </mxGeometry>
        </mxCell>
        <mxCell id="i34O2aka0GKam-lfOSil-40" value="" style="endArrow=none;dashed=1;html=1;rounded=1;strokeColor=#BD2214;strokeWidth=4;curved=1;" parent="1" edge="1">
          <mxGeometry width="50" height="50" relative="1" as="geometry">
            <mxPoint x="757.5" y="360" as="sourcePoint" />
            <mxPoint x="758" y="300" as="targetPoint" />
          </mxGeometry>
        </mxCell>
        <mxCell id="i34O2aka0GKam-lfOSil-41" value="" style="endArrow=classic;html=1;rounded=1;exitX=1;exitY=0.75;exitDx=0;exitDy=0;edgeStyle=orthogonalEdgeStyle;curved=1;strokeColor=#BD2214;strokeWidth=4;entryX=1;entryY=0.25;entryDx=0;entryDy=0;" parent="1" edge="1">
          <mxGeometry width="50" height="50" relative="1" as="geometry">
            <mxPoint x="420" y="414" as="sourcePoint" />
            <mxPoint x="420" y="474" as="targetPoint" />
            <Array as="points">
              <mxPoint x="460" y="414" />
              <mxPoint x="460" y="474" />
            </Array>
          </mxGeometry>
        </mxCell>
        <mxCell id="i34O2aka0GKam-lfOSil-42" value="" style="endArrow=classic;html=1;rounded=1;exitX=1;exitY=0.75;exitDx=0;exitDy=0;edgeStyle=orthogonalEdgeStyle;curved=1;strokeColor=#BD2214;strokeWidth=4;entryX=1;entryY=0.25;entryDx=0;entryDy=0;" parent="1" edge="1">
          <mxGeometry width="50" height="50" relative="1" as="geometry">
            <mxPoint x="600" y="330" as="sourcePoint" />
            <mxPoint x="600" y="390" as="targetPoint" />
            <Array as="points">
              <mxPoint x="640" y="330" />
              <mxPoint x="640" y="390" />
            </Array>
          </mxGeometry>
        </mxCell>
        <mxCell id="i34O2aka0GKam-lfOSil-43" value="" style="endArrow=classic;html=1;rounded=1;exitX=1;exitY=0.75;exitDx=0;exitDy=0;edgeStyle=orthogonalEdgeStyle;curved=1;strokeColor=#BD2214;strokeWidth=4;entryX=1;entryY=0.25;entryDx=0;entryDy=0;" parent="1" edge="1">
          <mxGeometry width="50" height="50" relative="1" as="geometry">
            <mxPoint x="600" y="414" as="sourcePoint" />
            <mxPoint x="600" y="474" as="targetPoint" />
            <Array as="points">
              <mxPoint x="640" y="414" />
              <mxPoint x="640" y="474" />
            </Array>
          </mxGeometry>
        </mxCell>
        <mxCell id="i34O2aka0GKam-lfOSil-44" value="" style="endArrow=classic;html=1;rounded=1;exitX=0;exitY=0.25;exitDx=0;exitDy=0;edgeStyle=orthogonalEdgeStyle;curved=1;strokeColor=#BD2214;strokeWidth=4;entryX=0;entryY=0.75;entryDx=0;entryDy=0;" parent="1" source="i34O2aka0GKam-lfOSil-5" target="i34O2aka0GKam-lfOSil-4" edge="1">
          <mxGeometry width="50" height="50" relative="1" as="geometry">
            <mxPoint x="230" y="380" as="sourcePoint" />
            <mxPoint x="230" y="440" as="targetPoint" />
            <Array as="points">
              <mxPoint x="270" y="390" />
              <mxPoint x="270" y="330" />
            </Array>
          </mxGeometry>
        </mxCell>
        <mxCell id="i34O2aka0GKam-lfOSil-45" value="" style="endArrow=classic;html=1;rounded=1;exitX=0;exitY=0.25;exitDx=0;exitDy=0;edgeStyle=orthogonalEdgeStyle;curved=1;strokeColor=#BD2214;strokeWidth=4;entryX=0;entryY=0.75;entryDx=0;entryDy=0;" parent="1" edge="1">
          <mxGeometry width="50" height="50" relative="1" as="geometry">
            <mxPoint x="300" y="474" as="sourcePoint" />
            <mxPoint x="300" y="414" as="targetPoint" />
            <Array as="points">
              <mxPoint x="270" y="474" />
              <mxPoint x="270" y="414" />
            </Array>
          </mxGeometry>
        </mxCell>
        <mxCell id="i34O2aka0GKam-lfOSil-46" value="" style="endArrow=classic;html=1;rounded=1;exitX=1;exitY=0.75;exitDx=0;exitDy=0;edgeStyle=orthogonalEdgeStyle;curved=1;strokeColor=#BD2214;strokeWidth=4;entryX=1;entryY=0.25;entryDx=0;entryDy=0;" parent="1" edge="1">
          <mxGeometry width="50" height="50" relative="1" as="geometry">
            <mxPoint x="818" y="440" as="sourcePoint" />
            <mxPoint x="818" y="500" as="targetPoint" />
            <Array as="points">
              <mxPoint x="858" y="440" />
              <mxPoint x="858" y="500" />
            </Array>
          </mxGeometry>
        </mxCell>
        <mxCell id="JryGW9-K_rKjH2KjSmUq-1" value="" style="endArrow=classic;html=1;rounded=1;exitX=0;exitY=0.25;exitDx=0;exitDy=0;edgeStyle=orthogonalEdgeStyle;curved=1;strokeColor=#BD2214;strokeWidth=4;entryX=0;entryY=0.75;entryDx=0;entryDy=0;" edge="1" parent="1">
          <mxGeometry width="50" height="50" relative="1" as="geometry">
            <mxPoint x="698" y="505" as="sourcePoint" />
            <mxPoint x="698" y="445" as="targetPoint" />
            <Array as="points">
              <mxPoint x="668" y="505" />
              <mxPoint x="668" y="445" />
            </Array>
          </mxGeometry>
        </mxCell>
      </root>
    </mxGraphModel>
  </diagram>
</mxfile>
